<?xml version="1.0" encoding="UTF-8"?><svg id="a" xmlns="http://www.w3.org/2000/svg" xmlns:xlink="http://www.w3.org/1999/xlink" viewBox="0 0 742.73 254.37"><defs><style>.c{fill:#00008b;}.c,.d,.e{fill-rule:evenodd;}.d,.f{fill:red;}.g,.e{fill:#fff;}.h,.i{fill:none;}.i{stroke:#fff;stroke-miterlimit:10;stroke-width:.22px;}.j{clip-path:url(#b);}</style><clipPath id="b"><rect class="h" x="15.13" y="15.13" width="712.48" height="225.18" rx="4.22" ry="4.22"/></clipPath></defs><rect class="g" width="742.73" height="254.37" rx="23.12" ry="23.12"/><g class="j"><rect class="f" x="217.65" y="15.13" width="509.96" height="225.18"/><path class="d" d="M15.13,33.15l114.03,56.29h35.57L15.13,15.13v18.02"/><path class="d" d="M15.13,240.31l149.8-75.22h33.81L49.32,240.31H15.13"/><path class="c" d="M15.13,40.48l99.77,50.04H15.13v-50.04Z"/><path class="c" d="M15.13,214.68l99.77-50.04H15.13v50.04Z"/><path class="c" d="M65.71,15.13l136.82,69.36V15.13H65.71Z"/><path class="c" d="M65.66,240.31l136.82-69.36v69.36H65.66Z"/><path class="e" d="M15.13,104.98h202.52V15.13h-15.13v69.36L65.71,15.13H15.13l149.61,74.31h-35.57L15.13,33.15v7.33l99.77,50.04H15.13v14.46"/><path class="i" d="M15.13,104.98h202.52V15.13h-15.13v69.36L65.71,15.13H15.13l149.61,74.31h-35.57L15.13,33.15v7.33l99.77,50.04H15.13v14.46Z"/><path class="e" d="M15.13,149.5h202.52v90.81h-15.18v-69.36l-136.82,69.36h-16.34l149.42-75.22h-33.81L15.13,240.31v-25.63l99.77-50.04H15.13v-15.14"/><path class="i" d="M15.13,149.5h202.52v90.81h-15.18v-69.36l-136.82,69.36h-16.34l149.42-75.22h-33.81L15.13,240.31v-25.63l99.77-50.04H15.13v-15.14Z"/><polygon class="d" points="240.33 240.31 240.33 240.28 240.31 240.28 240.31 15.13 217.65 15.13 217.65 105.31 15.13 104.98 15.13 149.5 217.65 149.83 217.65 240.31 240.33 240.31"/></g><rect class="h" x="256.61" y="15.07" width="470.99" height="224.18"/><path class="g" d="M262.41,50.26h26.1c7.73,0,13.3,1.1,16.7,3.3,4.33,2.8,6.5,7.4,6.5,13.8,0,3.73-.93,6.77-2.8,9.1-1.27,1.6-3.4,3.03-6.4,4.3,3.4.93,5.93,2.23,7.6,3.9,2.8,2.87,4.2,6.83,4.2,11.9,0,6.47-2.17,11.4-6.5,14.8-2.33,1.8-5.03,2.97-8.1,3.5-1.8.33-4.77.5-8.9.5h-28.4V50.26ZM274.41,59.76v17.2h13.5c4,0,6.87-.57,8.6-1.7,2.13-1.4,3.2-3.7,3.2-6.9,0-2.73-.93-4.9-2.8-6.5-1.6-1.4-4.63-2.1-9.1-2.1h-13.4ZM274.41,86.16v19.4h14.9c4.27,0,7.47-.78,9.6-2.35,2.13-1.57,3.2-3.98,3.2-7.25,0-4.47-1.93-7.43-5.8-8.9-1.47-.6-4.07-.9-7.8-.9h-14.1Z"/><path class="g" d="M323.71,65.36h10.8l.3,8,.7-1.5c2.33-5,6.8-7.5,13.4-7.5.93,0,1.87.03,2.8.1v11h-1.8c-6,0-10.13,1.57-12.4,4.7-.8,1.07-1.37,2.33-1.7,3.8-.53,2.2-.8,5.27-.8,9.2v22.2h-11.3v-50Z"/><path class="g" d="M358.51,49.06h11.3v10.4h-11.3v-10.4ZM358.51,65.36h11.3v50h-11.3v-50Z"/><path class="g" d="M383.21,49.56h11.3v15.8h11.1v8.7h-11.1v26.4c0,2.6.45,4.27,1.35,5,.9.73,4.08,1.1,9.55,1.1v9.2l-2.9.1c-1.93.07-3.43.1-4.5.1-1.87,0-3.37-.03-4.5-.1-3.93-.2-6.7-1.37-8.3-3.5-.8-1-1.33-2.22-1.6-3.65-.27-1.43-.4-5.35-.4-11.75v-22.9h-7.2v-8.7h7.2v-15.8Z"/><path class="g" d="M413.21,49.06h11.3v10.4h-11.3v-10.4ZM413.21,65.36h11.3v50h-11.3v-50Z"/><path class="g" d="M465.11,79.46c-.6-4.67-4.1-7-10.5-7-2.93,0-5.27.58-7,1.75-1.73,1.17-2.6,2.72-2.6,4.65,0,1,.23,1.83.7,2.5.6.93,1.7,1.58,3.3,1.95,1.6.37,4.9.75,9.9,1.15,12.27,1.07,18.4,6.23,18.4,15.5,0,5.27-1.93,9.35-5.8,12.25-3.87,2.9-9.27,4.35-16.2,4.35s-12.37-1.53-16.5-4.6c-3.53-2.6-5.77-6.7-6.7-12.3h11.8c.33,2.4,1.55,4.32,3.65,5.75,2.1,1.43,4.82,2.15,8.15,2.15,3.13,0,5.6-.62,7.4-1.85,1.8-1.23,2.7-2.88,2.7-4.95,0-1.73-.48-2.97-1.45-3.7-.97-.73-2.25-1.2-3.85-1.4-1.33-.2-4.03-.53-8.1-1-7.53-.93-12.67-2.67-15.4-5.2-2.33-2.13-3.5-5.23-3.5-9.3,0-4.93,1.92-8.88,5.75-11.85,3.83-2.97,8.98-4.45,15.45-4.45,7.46,0,13.1,1.83,16.9,5.5,2.53,2.47,4,5.3,4.4,8.5l.2,1.6h-11.1Z"/><path class="g" d="M485.61,48.96h11.3v21.5c3.8-4.4,8.63-6.6,14.5-6.6,5.33,0,9.63,1.67,12.9,5,1.73,1.73,2.93,3.73,3.6,6,.6,2,.9,5.9.9,11.7v28.6h-11.3v-29.5c0-4.4-.6-7.43-1.8-9.1-1.6-2.2-4-3.3-7.2-3.3-2.2,0-4.32.67-6.35,2-2.03,1.33-3.45,3.03-4.25,5.1-.67,1.73-1,4.83-1,9.3v25.5h-11.3V48.96Z"/><path class="g" d="M262.51,140.26h24.1c5,0,8.73.37,11.2,1.1,2.47.73,4.8,2.1,7,4.1,4.07,3.8,6.1,9.17,6.1,16.1s-2.1,12.13-6.3,15.8c-2.4,2.13-5.2,3.47-8.4,4-1.8.33-5,.5-9.6.5h-12.1v23.5h-12v-65.1ZM274.51,150.16v21.6h11.4c5.13,0,8.57-.83,10.3-2.5,2-1.93,3-4.6,3-8,0-2.4-.62-4.58-1.85-6.55-1.23-1.96-2.95-3.25-5.15-3.85-1.73-.47-5.07-.7-10-.7h-7.7Z"/><path class="g" d="M318.31,155.36h10.8l.3,8,.7-1.5c2.33-5,6.8-7.5,13.4-7.5.93,0,1.87.03,2.8.1v11h-1.8c-6,0-10.13,1.57-12.4,4.7-.8,1.07-1.37,2.33-1.7,3.8-.53,2.2-.8,5.27-.8,9.2v22.2h-11.3v-50Z"/><path class="g" d="M353.11,139.06h11.3v10.4h-11.3v-10.4ZM353.11,155.36h11.3v50h-11.3v-50Z"/><path class="g" d="M374.61,155.36h10.6v6.7c3.2-5.4,7.83-8.1,13.9-8.1,6.93,0,11.4,2.83,13.4,8.5,3.4-5.67,8.37-8.5,14.9-8.5,4.53,0,8.33,1.3,11.4,3.9,1.47,1.27,2.67,2.93,3.6,5,1,2.27,1.5,6.47,1.5,12.6v29.9h-11.4v-26.4c0-3.93-.03-6.46-.1-7.6-.33-5.07-2.77-7.6-7.3-7.6-2.67,0-4.87.85-6.6,2.55-1.73,1.7-2.83,3.88-3.3,6.55-.27,1.2-.4,3.3-.4,6.3v26.2h-11.3v-30c0-3.73-.37-6.4-1.1-8-1.07-2.4-3.13-3.6-6.2-3.6-2.27,0-4.28.72-6.05,2.15-1.77,1.43-2.95,3.25-3.55,5.45-.47,1.67-.7,4.57-.7,8.7v25.3h-11.3v-50Z"/><path class="g" d="M453.81,139.06h11.3v10.4h-11.3v-10.4ZM453.81,155.36h11.3v50h-11.3v-50Z"/><path class="g" d="M478.51,139.56h11.3v15.8h11.1v8.7h-11.1v26.4c0,2.6.45,4.27,1.35,5,.9.73,4.08,1.1,9.55,1.1v9.2l-2.9.1c-1.93.07-3.43.1-4.5.1-1.87,0-3.37-.03-4.5-.1-3.93-.2-6.7-1.37-8.3-3.5-.8-1-1.33-2.22-1.6-3.65-.27-1.43-.4-5.35-.4-11.75v-22.9h-7.2v-8.7h7.2v-15.8Z"/><path class="g" d="M508.51,139.06h11.3v10.4h-11.3v-10.4ZM508.51,155.36h11.3v50h-11.3v-50Z"/><path class="g" d="M538.11,155.36l13.2,37.9,12.6-37.9h12.1l-17.6,50h-14.3l-18-50h12Z"/><path class="g" d="M591.51,182.16c.73,9.73,5.13,14.6,13.2,14.6,3.73,0,6.53-.97,8.4-2.9.8-.8,1.57-2.13,2.3-4l11.7.4c-1.13,5.13-3.62,9.13-7.45,12-3.83,2.87-8.65,4.3-14.45,4.3-7.73,0-13.87-2.4-18.4-7.2-4.53-4.8-6.8-11.3-6.8-19.5s2.2-14.27,6.6-19c4.4-4.73,10.27-7.1,17.6-7.1s13.13,2.4,17.4,7.2c4.27,4.8,6.4,11.37,6.4,19.7,0,.53-.04,1.03-.1,1.5h-36.4ZM592.01,173.86h24c-1.07-7.33-5.04-11-11.9-11s-10.7,3.67-12.1,11Z"/><path class="g" d="M666.31,169.46c-.6-4.67-4.1-7-10.5-7-2.93,0-5.27.58-7,1.75-1.73,1.17-2.6,2.72-2.6,4.65,0,1,.23,1.83.7,2.5.6.93,1.7,1.58,3.3,1.95,1.6.37,4.9.75,9.9,1.15,12.27,1.07,18.4,6.23,18.4,15.5,0,5.27-1.93,9.35-5.8,12.25-3.87,2.9-9.27,4.35-16.2,4.35s-12.37-1.53-16.5-4.6c-3.53-2.6-5.77-6.7-6.7-12.3h11.8c.33,2.4,1.55,4.32,3.65,5.75,2.1,1.43,4.82,2.15,8.15,2.15,3.13,0,5.6-.62,7.4-1.85,1.8-1.23,2.7-2.88,2.7-4.95,0-1.73-.48-2.97-1.45-3.7-.97-.73-2.25-1.2-3.85-1.4-1.33-.2-4.03-.53-8.1-1-7.53-.93-12.67-2.67-15.4-5.2-2.33-2.13-3.5-5.23-3.5-9.3,0-4.93,1.92-8.88,5.75-11.85,3.83-2.97,8.98-4.45,15.45-4.45,7.47,0,13.1,1.83,16.9,5.5,2.53,2.47,4,5.3,4.4,8.5l.2,1.6h-11.1Z"/></svg>